<svg width="20" height="20" viewBox="0 0 20 20" fill="none" xmlns="http://www.w3.org/2000/svg" class="mr-2" data-v-1aa9cc10=""><path d="M4.89648 9.5C4.30554 9.5 3.72037 9.3836 3.17441 9.15746C2.62844 8.93131 2.13237 8.59984 1.7145 8.18198C1.29664 7.76412 0.965172 7.26804 0.739026 6.72208C0.51288 6.17611 0.396484 5.59095 0.396484 5C0.396484 4.40905 0.51288 3.82389 0.739026 3.27792C0.965172 2.73196 1.29664 2.23588 1.7145 1.81802C2.13237 1.40016 2.62844 1.06869 3.17441 0.842542C3.72037 0.616396 4.30554 0.5 4.89648 0.5C6.08996 0.5 7.23455 0.974106 8.07846 1.81802C8.92238 2.66193 9.39648 3.80653 9.39648 5C9.39648 6.19347 8.92238 7.33807 8.07846 8.18198C7.23455 9.02589 6.08996 9.5 4.89648 9.5ZM4.89648 19.5C3.70301 19.5 2.55842 19.0259 1.7145 18.182C0.87059 17.3381 0.396484 16.1935 0.396484 15C0.396484 13.8065 0.87059 12.6619 1.7145 11.818C2.55842 10.9741 3.70301 10.5 4.89648 10.5C6.08996 10.5 7.23455 10.9741 8.07846 11.818C8.92238 12.6619 9.39648 13.8065 9.39648 15C9.39648 16.1935 8.92238 17.3381 8.07846 18.182C7.23455 19.0259 6.08996 19.5 4.89648 19.5ZM14.8965 9.5C14.3055 9.5 13.7204 9.3836 13.1744 9.15746C12.6284 8.93131 12.1324 8.59984 11.7145 8.18198C11.2966 7.76412 10.9652 7.26804 10.739 6.72208C10.5129 6.17611 10.3965 5.59095 10.3965 5C10.3965 4.40905 10.5129 3.82389 10.739 3.27792C10.9652 2.73196 11.2966 2.23588 11.7145 1.81802C12.1324 1.40016 12.6284 1.06869 13.1744 0.842542C13.7204 0.616396 14.3055 0.5 14.8965 0.5C16.09 0.5 17.2346 0.974106 18.0785 1.81802C18.9224 2.66193 19.3965 3.80653 19.3965 5C19.3965 6.19347 18.9224 7.33807 18.0785 8.18198C17.2346 9.02589 16.09 9.5 14.8965 9.5ZM14.8965 19.5C13.703 19.5 12.5584 19.0259 11.7145 18.182C10.8706 17.3381 10.3965 16.1935 10.3965 15C10.3965 13.8065 10.8706 12.6619 11.7145 11.818C12.5584 10.9741 13.703 10.5 14.8965 10.5C16.09 10.5 17.2346 10.9741 18.0785 11.818C18.9224 12.6619 19.3965 13.8065 19.3965 15C19.3965 16.1935 18.9224 17.3381 18.0785 18.182C17.2346 19.0259 16.09 19.5 14.8965 19.5Z" fill="#323E67" data-v-1aa9cc10=""></path></svg>