<svg width="39" height="40" viewBox="0 0 39 40" fill="none" xmlns="http://www.w3.org/2000/svg" data-v-d715c0f6=""><path d="M19.38 20.3842C19.58 20.2842 19.98 20.1642 20.6 20.1642C21.7 20.1642 22.9 20.8042 22.9 22.3042C22.9 23.4842 22.02 24.5042 20.44 24.5042C19 24.5042 17.92 23.4842 17.86 21.9842L15.52 22.4642C15.68 24.6242 17.46 26.5642 20.46 26.5642C23.54 26.5642 25.32 24.5442 25.32 22.3242C25.32 19.8242 23.38 18.4242 21.44 18.3842L24.96 15.3042V13.3042H15.96V15.4042H21.86L18.28 18.6042L19.38 20.3842Z" fill="#001140" data-v-d715c0f6=""></path> <circle cx="19.5" cy="19.7642" r="19" stroke="#001140" data-v-d715c0f6=""></circle></svg>