<svg width="39" height="40" viewBox="0 0 39 40" fill="none" xmlns="http://www.w3.org/2000/svg" data-v-d715c0f6=""><path d="M18.16 18.1642C18.14 17.9442 18.1 17.7042 18.1 17.5042C18.1 16.1642 18.84 15.1042 20.36 15.1042C21.82 15.1042 22.54 16.0642 22.54 17.1242C22.54 18.0642 22.04 18.8442 20.88 19.5642L18.74 20.9042C16.48 22.3042 15.7 24.0442 15.66 26.2642H25.04V24.1442H18.62C18.8 23.5042 19.32 23.0442 19.94 22.6642L22.46 21.1042C24.02 20.1442 24.96 18.7642 24.96 17.0842C24.96 14.8642 23.26 13.0042 20.4 13.0042C17.46 13.0042 15.78 15.0242 15.78 17.2642C15.78 17.5242 15.82 17.8242 15.84 18.0042L18.16 18.1642Z" fill="#001140" data-v-d715c0f6=""></path> <circle cx="19.5" cy="19.7642" r="19" stroke="#001140" data-v-d715c0f6=""></circle></svg>